# xmcd
#
# Track frame offsets:
#	150
#	21207
#	42565
#	61287
#	84062
#	106620
#	128077
#	152032
#	176590
#	194877
#
# Disc length: 2965 seconds
#
# Revision: 4
# Processed by: cddbd v1.5PL3 Copyright (c) Steve Scherf et al.
# Submitted via: CDex 1.50Beta5
#
DISCID=7c0b930a
DTITLE=中西保志 - WARMIN'
DYEAR=1900
DGENRE=Pop
TTITLE0=想い出を閉じこめて
TTITLE1=Just feel it!
TTITLE2=君はせつない残酷
TTITLE3=言葉でいえる愛
TTITLE4=千年前から 見つめていた
TTITLE5=ガールフレンド
TTITLE6=一日の終わりに
TTITLE7=2nd TIME
TTITLE8=遠くわずかなDISTANCE
TTITLE9=LAST CALL
EXTD=
EXTT0=
EXTT1=
EXTT2=
EXTT3=
EXTT4=
EXTT5=
EXTT6=
EXTT7=
EXTT8=
EXTT9=
PLAYORDER=
